{
  "accessors": [
    {
      "bufferView": 2,
      "componentType": 5126,
      "count": 856,
      "max": [
        -0.430757999420166,
        -0.5407410264015198,
        0.2651199996471405
      ],
      "min": [
        -0.7054870128631592,
        -0.7220969796180725,
        0.14943799376487732
      ],
      "type": "VEC3"
    },
    {
      "bufferView": 2,
      "byteOffset": 10272,
      "componentType": 5126,
      "count": 856,
      "max": [
        0.9958908557891846,
        0.9702496528625488,
        0.9884782433509827
      ],
      "min": [
        -0.9418326616287231,
        -0.9990518689155579,
        -0.9651118516921997
      ],
      "type": "VEC3"
    },
    {
      "bufferView": 3,
      "componentType": 5126,
      "count": 856,
      "max": [
        0.9971015453338623,
        0.9990249872207642,
        0.9950400590896606,
        1.0
      ],
      "min": [
        -0.9253798127174377,
        -0.9203094840049744,
        -0.988875150680542,
        1.0
      ],
      "type": "VEC4"
    },
    {
      "bufferView": 1,
      "componentType": 5126,
      "count": 856,
      "max": [
        0.8583539724349976,
        0.5341699719429016
      ],
      "min": [
        0.7621979713439941,
        0.39486899971961975
      ],
      "type": "VEC2"
    },
    {
      "bufferView": 0,
      "componentType": 5125,
      "count": 4752,
      "type": "SCALAR"
    },
    {
      "bufferView": 2,
      "byteOffset": 20544,
      "componentType": 5126,
      "count": 65532,
      "max": [
        1.0,
        0.8631759881973267,
        0.2714439928531647
      ],
      "min": [
        -1.0,
        -0.8631759881973267,
        -0.2714439928531647
      ],
      "type": "VEC3"
    },
    {
      "bufferView": 2,
      "byteOffset": 806928,
      "componentType": 5126,
      "count": 65532,
      "max": [
        0.9999927878379822,
        0.9997963309288025,
        0.9999958872795105
      ],
      "min": [
        -0.9998416304588318,
        -0.9998266696929932,
        -0.9999707341194153
      ],
      "type": "VEC3"
    },
    {
      "bufferView": 3,
      "byteOffset": 13696,
      "componentType": 5126,
      "count": 65532,
      "max": [
        0.9999493956565857,
        0.9999855160713196,
        0.9999486207962036,
        1.0
      ],
      "min": [
        -0.999847948551178,
        -0.9996753334999084,
        -0.9999810457229614,
        -1.0
      ],
      "type": "VEC4"
    },
    {
      "bufferView": 1,
      "byteOffset": 6848,
      "componentType": 5126,
      "count": 65532,
      "max": [
        0.9970579743385315,
        0.9929670095443726
      ],
      "min": [
        0.024042999371886253,
        0.004648000001907349
      ],
      "type": "VEC2"
    },
    {
      "bufferView": 0,
      "byteOffset": 19008,
      "componentType": 5125,
      "count": 370683,
      "type": "SCALAR"
    },
    {
      "bufferView": 2,
      "byteOffset": 1593312,
      "componentType": 5126,
      "count": 65532,
      "max": [
        0.9728459715843201,
        0.8343020081520081,
        0.2562829852104187
      ],
      "min": [
        -0.7353919744491577,
        -0.7202039957046509,
        -0.20195099711418152
      ],
      "type": "VEC3"
    },
    {
      "bufferView": 2,
      "byteOffset": 2379696,
      "componentType": 5126,
      "count": 65532,
      "max": [
        0.9995912313461304,
        0.999829113483429,
        0.9998285174369812
      ],
      "min": [
        -0.9997797608375549,
        -0.9996711015701294,
        -0.9997085928916931
      ],
      "type": "VEC3"
    },
    {
      "bufferView": 3,
      "byteOffset": 1062208,
      "componentType": 5126,
      "count": 65532,
      "max": [
        1.0,
        0.9999995231628418,
        0.9999998807907104,
        1.0
      ],
      "min": [
        -1.0,
        -0.9999997615814209,
        -0.9999894499778748,
        -1.0
      ],
      "type": "VEC4"
    },
    {
      "bufferView": 1,
      "byteOffset": 531104,
      "componentType": 5126,
      "count": 65532,
      "max": [
        0.9947180151939392,
        0.9935979843139648
      ],
      "min": [
        0.008213999681174755,
        0.0060640000738203526
      ],
      "type": "VEC2"
    },
    {
      "bufferView": 0,
      "byteOffset": 1501740,
      "componentType": 5125,
      "count": 354876,
      "type": "SCALAR"
    },
    {
      "bufferView": 2,
      "byteOffset": 3166080,
      "componentType": 5126,
      "count": 6557,
      "max": [
        0.8989099860191345,
        0.7508050203323364,
        0.13747699558734894
      ],
      "min": [
        -0.6746829748153687,
        -0.514572024345398,
        -0.041738200932741165
      ],
      "type": "VEC3"
    },
    {
      "bufferView": 2,
      "byteOffset": 3244764,
      "componentType": 5126,
      "count": 6557,
      "max": [
        0.9976252317428589,
        0.9963774681091309,
        0.9984212517738342
      ],
      "min": [
        -0.9993841052055359,
        -0.9920366406440735,
        -0.9990068674087524
      ],
      "type": "VEC3"
    },
    {
      "bufferView": 3,
      "byteOffset": 2110720,
      "componentType": 5126,
      "count": 6557,
      "max": [
        0.9924434423446655,
        0.9933667778968811,
        0.9997370839118958,
        1.0
      ],
      "min": [
        -0.999704122543335,
        -0.9976784586906433,
        -0.9999819397926331,
        -1.0
      ],
      "type": "VEC4"
    },
    {
      "bufferView": 1,
      "byteOffset": 1055360,
      "componentType": 5126,
      "count": 6557,
      "max": [
        0.8136929869651794,
        0.9855809807777405
      ],
      "min": [
        0.011420000344514847,
        0.014812000095844269
      ],
      "type": "VEC2"
    },
    {
      "bufferView": 0,
      "byteOffset": 2921244,
      "componentType": 5125,
      "count": 28527,
      "type": "SCALAR"
    }
  ],
  "asset": {
    "extras": {
      "author": "BlakkMato (https://sketchfab.com/BlakkMato)",
      "license": "CC-BY-4.0 (http://creativecommons.org/licenses/by/4.0/)",
      "source": "https://sketchfab.com/3d-models/glassy-gibson-guitar-489c253316c3414288dab313c6a80d0c",
      "title": "Glassy Gibson Guitar"
    },
    "generator": "Sketchfab-12.67.0",
    "version": "2.0"
  },
  "bufferViews": [
    {
      "buffer": 0,
      "byteLength": 3035352,
      "name": "floatBufferViews",
      "target": 34963
    },
    {
      "buffer": 0,
      "byteLength": 1107816,
      "byteOffset": 3035352,
      "byteStride": 8,
      "name": "floatBufferViews",
      "target": 34962
    },
    {
      "buffer": 0,
      "byteLength": 3323448,
      "byteOffset": 4143168,
      "byteStride": 12,
      "name": "floatBufferViews",
      "target": 34962
    },
    {
      "buffer": 0,
      "byteLength": 2215632,
      "byteOffset": 7466616,
      "byteStride": 16,
      "name": "floatBufferViews",
      "target": 34962
    }
  ],
  "buffers": [
    {
      "byteLength": 9682248,
      "uri": "scene.bin"
    }
  ],
  "extensionsUsed": [
    "KHR_materials_clearcoat",
    "KHR_materials_transmission"
  ],
  "images": [
    {
      "uri": "textures/lambert1_baseColor.png"
    },
    {
      "uri": "textures/lambert1_metallicRoughness.png"
    },
    {
      "uri": "textures/lambert1_normal.png"
    },
    {
      "uri": "textures/trans_baseColor.png"
    },
    {
      "uri": "textures/trans_metallicRoughness.png"
    },
    {
      "uri": "textures/trans_normal.png"
    },
    {
      "uri": "textures/trans_transmission.png"
    }
  ],
  "materials": [
    {
      "alphaMode": "BLEND",
      "doubleSided": true,
      "name": "lambert1",
      "normalTexture": {
        "index": 2
      },
      "pbrMetallicRoughness": {
        "baseColorTexture": {
          "index": 0
        },
        "metallicRoughnessTexture": {
          "index": 1
        }
      }
    },
    {
      "alphaMode": "BLEND",
      "doubleSided": true,
      "extensions": {
        "KHR_materials_clearcoat": {
          "clearcoatFactor": 1.0,
          "clearcoatRoughnessFactor": 0.04
        },
        "KHR_materials_transmission": {
          "transmissionFactor": 1.0,
          "transmissionTexture": {
            "index": 6
          }
        }
      },
      "name": "trans",
      "normalTexture": {
        "index": 5
      },
      "occlusionTexture": {
        "index": 4
      },
      "pbrMetallicRoughness": {
        "baseColorTexture": {
          "index": 3
        },
        "metallicRoughnessTexture": {
          "index": 4
        }
      }
    }
  ],
  "meshes": [
    {
      "name": "defaultMaterial",
      "primitives": [
        {
          "attributes": {
            "NORMAL": 1,
            "POSITION": 0,
            "TANGENT": 2,
            "TEXCOORD_0": 3
          },
          "indices": 4,
          "material": 1,
          "mode": 4
        }
      ]
    },
    {
      "name": "defaultMaterial",
      "primitives": [
        {
          "attributes": {
            "NORMAL": 6,
            "POSITION": 5,
            "TANGENT": 7,
            "TEXCOORD_0": 8
          },
          "indices": 9,
          "material": 0,
          "mode": 4
        }
      ]
    },
    {
      "name": "defaultMaterial",
      "primitives": [
        {
          "attributes": {
            "NORMAL": 11,
            "POSITION": 10,
            "TANGENT": 12,
            "TEXCOORD_0": 13
          },
          "indices": 14,
          "material": 0,
          "mode": 4
        }
      ]
    },
    {
      "name": "defaultMaterial",
      "primitives": [
        {
          "attributes": {
            "NORMAL": 16,
            "POSITION": 15,
            "TANGENT": 17,
            "TEXCOORD_0": 18
          },
          "indices": 19,
          "material": 0,
          "mode": 4
        }
      ]
    }
  ],
  "nodes": [
    {
      "children": [
        1
      ],
      "matrix": [
        1.0,
        0.0,
        0.0,
        0.0,
        0.0,
        2.220446049250313e-16,
        -1.0,
        0.0,
        0.0,
        1.0,
        2.220446049250313e-16,
        0.0,
        0.0,
        0.0,
        0.0,
        1.0
      ],
      "name": "Sketchfab_model"
    },
    {
      "children": [
        2,
        4
      ],
      "matrix": [
        1.0,
        0.0,
        0.0,
        0.0,
        0.0,
        -4.371139006309477e-08,
        0.999999999999999,
        0.0,
        0.0,
        -0.999999999999999,
        -4.371139006309477e-08,
        0.0,
        0.0,
        0.0,
        0.0,
        1.0
      ],
      "name": "Collada visual scene group"
    },
    {
      "children": [
        3
      ],
      "name": "Mesh1"
    },
    {
      "mesh": 0,
      "name": "defaultMaterial"
    },
    {
      "children": [
        5,
        6,
        7
      ],
      "name": "Mesh"
    },
    {
      "mesh": 1,
      "name": "defaultMaterial"
    },
    {
      "mesh": 2,
      "name": "defaultMaterial"
    },
    {
      "mesh": 3,
      "name": "defaultMaterial"
    }
  ],
  "samplers": [
    {
      "magFilter": 9729,
      "minFilter": 9987,
      "wrapS": 10497,
      "wrapT": 10497
    }
  ],
  "scene": 0,
  "scenes": [
    {
      "name": "Sketchfab_Scene",
      "nodes": [
        0
      ]
    }
  ],
  "textures": [
    {
      "sampler": 0,
      "source": 0
    },
    {
      "sampler": 0,
      "source": 1
    },
    {
      "sampler": 0,
      "source": 2
    },
    {
      "sampler": 0,
      "source": 3
    },
    {
      "sampler": 0,
      "source": 4
    },
    {
      "sampler": 0,
      "source": 5
    },
    {
      "sampler": 0,
      "source": 6
    }
  ]
}
